<?xml version="1.0" standalone="no"?>
<!DOCTYPE svg PUBLIC "-//W3C//DTD SVG 20010904//EN"
 "http://www.w3.org/TR/2001/REC-SVG-20010904/DTD/svg10.dtd">
<svg version="1.0" xmlns="http://www.w3.org/2000/svg"
 width="1280.000000pt" height="887.000000pt" viewBox="0 0 1280.000000 887.000000"
 preserveAspectRatio="xMidYMid meet">

<g transform="translate(0.000000,887.000000) scale(0.100000,-0.100000)"
fill="#000000" stroke="none">
<path d="M2432 8074 c-190 -51 -326 -217 -332 -405 -1 -30 -1 -1149 -1 -2486
l1 -2433 4300 0 4300 0 -2 2503 -3 2503 -38 77 c-63 127 -160 207 -292 242
-53 13 -487 15 -3970 14 -3343 0 -3918 -2 -3963 -15z m7926 -2641 l-3 -2278
-3955 0 -3955 0 -3 2278 -2 2277 3960 0 3960 0 -2 -2277z"/>
<path d="M8237 3823 l523 -3 3 -333 2 -332 3 338 2 337 -527 -2 -528 -3 522
-2z"/>
<path d="M7734 3490 c0 -179 2 -252 3 -162 2 89 2 235 0 325 -1 89 -3 16 -3
-163z"/>
<path d="M6320 2549 c-49 -20 -93 -63 -116 -113 -38 -82 -28 -168 28 -232 89
-101 223 -108 318 -15 75 73 90 158 43 252 -40 78 -94 113 -181 116 -37 2 -78
-2 -92 -8z"/>
</g>
</svg>
